<svg width="32" height="32" viewBox="0 0 32 32" fill="none" xmlns="http://www.w3.org/2000/svg">
<rect width="32" height="32" rx="16" fill="#E5E4E0"/>
<path fill-rule="evenodd" clip-rule="evenodd" d="M14.0717 13.7268H16.8573V15.1143C17.2585 14.3163 18.2875 13.5993 19.8333 13.5993C22.7965 13.5993 23.5 15.1878 23.5 18.1023V23.5H20.5V18.766C20.5 17.1062 20.0988 16.1702 19.0773 16.1702C17.6605 16.1702 17.0717 17.179 17.0717 18.7653V23.5H14.0717V13.7268ZM8.9275 23.3725H11.9275V13.5993H8.9275V23.3725ZM12.3573 10.4125C12.3574 10.664 12.3075 10.9129 12.2105 11.1449C12.1136 11.377 11.9715 11.5874 11.7925 11.764C11.4298 12.1245 10.9389 12.3262 10.4275 12.325C9.91704 12.3247 9.42723 12.1234 9.064 11.7648C8.88566 11.5875 8.74404 11.3769 8.64726 11.1448C8.55048 10.9128 8.50043 10.6639 8.5 10.4125C8.5 9.90475 8.7025 9.41875 9.06475 9.06025C9.42766 8.70112 9.91768 8.49978 10.4283 8.5C10.9397 8.5 11.4302 8.70175 11.7925 9.06025C12.154 9.41875 12.3573 9.90475 12.3573 10.4125Z" fill="#4B3060"/>
</svg>
