<svg width="32" height="32" viewBox="0 0 32 32" fill="none" xmlns="http://www.w3.org/2000/svg">
<rect width="32" height="32" rx="16" fill="#E5E4E0"/>
<g clip-path="url(#clip0_272_1299)">
<path fill-rule="evenodd" clip-rule="evenodd" d="M16 10C16.6412 10 17.299 10.0165 17.9365 10.0435L18.6895 10.0795L19.4103 10.1223L20.0853 10.168L20.7017 10.216C21.3709 10.2669 22.0006 10.5523 22.48 11.022C22.9593 11.4916 23.2576 12.1153 23.3223 12.7832L23.3522 13.102L23.4085 13.7845C23.461 14.4917 23.5 15.2628 23.5 16C23.5 16.7372 23.461 17.5083 23.4085 18.2155L23.3522 18.898L23.3223 19.2167C23.2576 19.8848 22.9592 20.5086 22.4797 20.9783C22.0002 21.4479 21.3703 21.7333 20.701 21.784L20.086 21.8312L19.411 21.8778L18.6895 21.9205L17.9365 21.9565C17.2914 21.9844 16.6457 21.9989 16 22C15.3543 21.9989 14.7086 21.9844 14.0635 21.9565L13.3105 21.9205L12.5898 21.8778L11.9148 21.8312L11.2982 21.784C10.6291 21.7331 9.9994 21.4477 9.52003 20.978C9.04067 20.5084 8.74239 19.8847 8.67775 19.2167L8.64775 18.898L8.5915 18.2155C8.53437 17.4783 8.50385 16.7394 8.5 16C8.5 15.2628 8.539 14.4917 8.5915 13.7845L8.64775 13.102L8.67775 12.7832C8.74237 12.1154 9.04053 11.4918 9.51975 11.0222C9.99896 10.5526 10.6285 10.2671 11.2975 10.216L11.9132 10.168L12.5883 10.1223L13.3098 10.0795L14.0627 10.0435C14.7081 10.0155 15.354 10.001 16 10ZM14.5 14.1812V17.8188C14.5 18.1652 14.875 18.3812 15.175 18.2087L18.325 16.39C18.3935 16.3505 18.4505 16.2937 18.4901 16.2253C18.5297 16.1568 18.5505 16.0791 18.5505 16C18.5505 15.9209 18.5297 15.8432 18.4901 15.7747C18.4505 15.7063 18.3935 15.6495 18.325 15.61L15.175 13.792C15.1066 13.7525 15.0289 13.7317 14.9499 13.7317C14.8709 13.7317 14.7933 13.7525 14.7249 13.7921C14.6565 13.8316 14.5997 13.8885 14.5602 13.9569C14.5207 14.0253 14.4999 14.103 14.5 14.182V14.1812Z" fill="#4B3060"/>
</g>
<defs>
<clipPath id="clip0_272_1299">
<rect width="18" height="18" fill="white" transform="translate(7 7)"/>
</clipPath>
</defs>
</svg>
